<?xml version="1.0" standalone="no"?><!DOCTYPE svg PUBLIC "-//W3C//DTD SVG 1.1//EN" "http://www.w3.org/Graphics/SVG/1.1/DTD/svg11.dtd"><svg t="1733117694032" class="icon" viewBox="0 0 1024 1024" version="1.1" xmlns="http://www.w3.org/2000/svg" p-id="1887" xmlns:xlink="http://www.w3.org/1999/xlink" width="200" height="200"><path d="M837.518222 766.748444a36.181333 36.181333 0 0 0 8.760889 1.251556 34.133333 34.133333 0 1 0-34.133333-34.133333 31.971556 31.971556 0 0 0 1.251555 8.760889l-67.015111 67.015111v-49.493334a34.133333 34.133333 0 1 0-34.133333 0v54.613334a34.133333 34.133333 0 1 0 36.181333 53.134222H819.2a34.133333 34.133333 0 1 0-3.754667-34.133333h-44.942222z" p-id="1888"></path><path d="M864.711111 608.028444v-4.096l-1.251555-404.935111a10.012444 10.012444 0 0 1 0-1.820444V193.422222c0-103.765333-176.128-182.044444-409.6-182.044444s-409.6 78.279111-409.6 182.044444v3.754667a11.377778 11.377778 0 0 0 0 1.934222v202.524445a25.258667 25.258667 0 0 0 0 4.209777v8.419556L45.511111 611.555556a31.744 31.744 0 0 0-0.796444 6.599111A105.585778 105.585778 0 0 0 45.511111 630.215111v192.284445a27.306667 27.306667 0 0 0-1.251555 8.078222c0 103.765333 176.014222 182.044444 409.6 182.044444A802.133333 802.133333 0 0 0 716.8 972.117333a28.444444 28.444444 0 0 0 7.509333-4.209777A193.422222 193.422222 0 0 0 864.711111 608.028444zM600.974222 730.794667a848.782222 848.782222 0 0 1-147.228444 12.515555C260.323556 743.310222 113.777778 682.666667 102.4 625.777778V501.646222c70.200889 52.565333 198.769778 86.357333 352.711111 86.357334S737.507556 553.528889 807.822222 500.622222v92.615111a185.912889 185.912889 0 0 0-21.390222-1.592889 193.422222 193.422222 0 0 0-185.457778 139.150223zM806.684444 288.426667v111.388444a34.929778 34.929778 0 0 0-0.568888 6.030222c0 59.050667-150.869333 125.155556-352.711112 125.155556-195.584 0-343.267556-62.008889-352.711111-119.580445V288.881778C171.235556 341.333333 300.032 375.466667 453.745778 375.466667s282.965333-34.133333 352.938666-87.04zM453.745778 68.266667c201.841778 0 352.711111 66.104889 352.711111 125.155555s-150.869333 125.155556-352.711111 125.155556-352.711111-66.104889-352.711111-125.155556 150.755556-125.155556 352.711111-125.155555z m0 887.466666c-194.218667 0-341.333333-61.098667-352.028445-118.442666a31.402667 31.402667 0 0 0 0.682667-5.802667v-117.191111c70.314667 52.337778 198.656 85.902222 351.687111 85.902222a922.737778 922.737778 0 0 0 139.605333-10.467555 192.739556 192.739556 0 0 0 65.877334 140.629333A798.151111 798.151111 0 0 1 453.745778 955.733333z m332.686222-34.133333a136.533333 136.533333 0 1 1 136.533333-136.533333 136.533333 136.533333 0 0 1-136.533333 136.533333z" p-id="1889"></path></svg>